# xmcd
#
# Track frame offsets: 
#        150
#        13396
#        34421
#        55433
#        69938
#        94888
#        112613
#        131946
#        144276
#        161950
#        176650
#
# Disc length: 2534 seconds
#
# Revision: 0
# Processed by: cddbd v1.4PL0 Copyright (c) Steve Scherf et al.
# Submitted via: ExactAudioCopy v0.90b2
#
DISCID=9e09e40b
DTITLE=Bruce Robison - Wrapped (1997)
DYEAR=1997
DGENRE=Country
TTITLE0=See You Around
TTITLE1=Wrapped
TTITLE2=End Like That
TTITLE3=When I Loved You
TTITLE4=My Brother and Me
TTITLE5=Lonely For You
TTITLE6=12 Bar Blues
TTITLE7=She Don't Care
TTITLE8=Go To Your Heart
TTITLE9=I Dream Too
TTITLE10=Don't You Ever Call My Name
EXTD=Boar's Nest Records
EXTT0=
EXTT1=
EXTT2=
EXTT3=
EXTT4=
EXTT5=
EXTT6=
EXTT7=
EXTT8=
EXTT9=
EXTT10=
PLAYORDER=
